<svg xmlns="http://www.w3.org/2000/svg" viewBox="0 0 58.06 142.09"><defs><style>.cls-1{fill:none;}.cls-1,.cls-3,.cls-4,.cls-5{stroke:#fff;}.cls-1,.cls-3,.cls-4{stroke-linecap:round;}.cls-1,.cls-4,.cls-5{stroke-miterlimit:10;}.cls-2{fill:#fff;}.cls-3,.cls-4,.cls-5{fill:#392d6d;stroke-width:2px;}.cls-3{stroke-linejoin:round;}</style></defs><g id="Layer_2" data-name="Layer 2"><g id="Layer_1-2" data-name="Layer 1"><line class="cls-1" x1="12.66" y1="140.73" x2="57.56" y2="92.8"/><polygon class="cls-2" points="15.53 110.73 15.56 110.71 15.57 110.73 15.53 110.73"/><path class="cls-3" d="M16.33,22.77l-.42,0a7.75,7.75,0,0,0-4.48,2.07l-.91-8.37L8.9,1.55,14,1l1.56,14.39Z"/><path class="cls-4" d="M24,37.37l-.79,7L20.47,68.82v.05L12.17,142,6.31,42.25l-.41-7,5,.59a7.63,7.63,0,0,0,2.37,1.82l.23.11a7.66,7.66,0,0,0,4.15.71,7.83,7.83,0,0,0,3.68-1.4Z"/><path class="cls-4" d="M42.54,133.64,20.47,68.82l-.53-1.55L12.53,45.51,12.36,45l-2.15-6.32,3-1,.23.11a7.66,7.66,0,0,0,4.15.71,7.83,7.83,0,0,0,3.68-1.4,7.49,7.49,0,0,0,2.48-2.88,1.89,1.89,0,0,0,.11-.25L26.61,33l1.05,6.62.18,1.14Z"/><path class="cls-5" d="M31.55,29A15.34,15.34,0,0,0,17.23,15.4a13.76,13.76,0,0,0-1.7,0l-.85.06a14.79,14.79,0,0,0-2.52.5c-.56.16-1.11.35-1.64.56A15.48,15.48,0,0,0,4.4,21.09,15.31,15.31,0,0,0,12.49,45.5h0a15.32,15.32,0,0,0,10.71-1.17,15.17,15.17,0,0,0,4.6-3.6c.14-.15.27-.31.4-.47s.22-.29.34-.43A15.25,15.25,0,0,0,31.55,29ZM17.61,38.45a7.66,7.66,0,0,1-4.15-.71l-.23-.11a7.63,7.63,0,0,1-2.37-1.82,7.83,7.83,0,0,1-.21-10.1,6.83,6.83,0,0,1,.78-.83,7.75,7.75,0,0,1,4.48-2.07l.42,0a7.9,7.9,0,0,1,8.25,7,7.55,7.55,0,0,1-.7,4.14,1.89,1.89,0,0,1-.11.25,7.49,7.49,0,0,1-2.48,2.88A7.83,7.83,0,0,1,17.61,38.45Z"/></g></g></svg>